<?xml version="1.0" encoding="UTF-8"?>
<svg width="120px" height="117px" viewBox="0 0 120 117" version="1.1" xmlns="http://www.w3.org/2000/svg" xmlns:xlink="http://www.w3.org/1999/xlink">
    <!-- Generator: Sketch 54.1 (76490) - https://sketchapp.com -->
    <title>Group 21</title>
    <desc>Created with Sketch.</desc>
    <g id="Main" stroke="none" stroke-width="1" fill="none" fill-rule="evenodd">
        <g id="1.-index_1440" transform="translate(-130.000000, -2606.000000)">
            <g id="Group-11" transform="translate(50.000000, 2349.000000)">
                <g id="Group-9" transform="translate(0.000000, 250.000000)">
                    <g id="Group-21" transform="translate(76.000000, 0.000000)">
                        <rect id="Rectangle" x="0" y="0" width="128" height="128"></rect>
                        <rect id="Rectangle-Copy-2" x="4" y="4" width="120" height="120"></rect>
                        <path d="M56,17.6781117 L56,12 C56,11.4477153 55.5522847,11 55,11 L52,11 C50.8954305,11 50,10.1045695 50,9 C50,7.8954305 50.8954305,7 52,7 L76,7 C77.1045695,7 78,7.8954305 78,9 C78,10.1045695 77.1045695,11 76,11 L73,11 C72.4477153,11 72,11.4477153 72,12 L72,17.6781117 C79.6759778,18.9943912 86.7160631,22.1722218 92.6389417,26.7302892 L97.3421673,23.7373275 C99.3192823,22.4791634 101.904979,22.763001 103.562079,24.420101 L107.936927,28.7949497 C109.594027,30.4520497 109.877865,33.0377461 108.619701,35.0148611 L104.909745,40.8447915 C108.786506,47.679387 111,55.5811988 111,64 C111,69.0080116 110.215893,73.9124415 108.693952,78.5805987 C108.35157,79.6307647 107.222687,80.2045374 106.172521,79.8621559 C105.122355,79.5197744 104.548582,78.3908915 104.890964,77.3407255 C106.28278,73.0716938 107,68.5856289 107,64 C107,52.7795784 102.702403,42.5629143 95.6634617,34.9062603 L93.0937397,32.3365383 C85.437091,25.2975992 75.2204245,21 64,21 C40.2517558,21 21,40.2517558 21,64 C21,74.2994949 24.6307629,84.0337662 31.1416254,91.7382576 C31.8545823,92.58192 31.7486245,93.8438093 30.9049621,94.5567662 C30.0612997,95.269723 28.7994104,95.1637653 28.0864535,94.3201028 C20.9710559,85.9002475 17,75.2536325 17,64 C17,40.7697679 33.8533029,21.4758355 56,17.6781117 Z M64,17 C65.3473263,17 66.6814114,17.0566922 68,17.1678213 L68,13 C68,11.8954305 67.1045695,11 66,11 L62,11 C60.8954305,11 60,11.8954305 60,13 L60,17.1678213 C61.3185886,17.0566922 62.6526737,17 64,17 Z M98.5503485,32.1362929 L102.925862,36.5118059 L105.245055,32.8673591 C105.496688,32.4719361 105.43992,31.9547968 105.1085,31.6233768 L100.733652,27.2485281 C100.402232,26.9171081 99.8850923,26.8603406 99.4896693,27.1119734 L95.8452225,29.4311668 L95.8637071,29.4496515 C96.7948496,30.3088183 97.6911817,31.2051504 98.5503485,32.1362929 Z M42.9104115,106.013683 C41.9236064,105.517407 41.5259535,104.315133 42.022229,103.328328 C42.5185046,102.341522 43.720779,101.94387 44.7075841,102.440145 C50.6415778,105.424418 57.2059802,107 64,107 C76.7663544,107 88.61879,101.40661 96.7412572,91.8762591 C97.457739,91.0355881 98.7200607,90.9349129 99.5607316,91.6513947 C100.401403,92.3678764 100.502078,93.6301981 99.7855961,94.4708691 C90.9110007,104.883716 77.9505488,111 64,111 C56.5782889,111 49.3988702,109.276802 42.9104115,106.013683 Z M21.5735931,21.5735931 C22.3546417,20.7925445 23.6209717,20.7925445 24.4020203,21.5735931 C25.1830688,22.3546417 25.1830688,23.6209717 24.4020203,24.4020203 C13.9664634,34.8375771 8,48.943881 8,64 C8,71.4534374 9.4557256,78.7004733 12.2481361,85.4346548 C12.6712273,86.454982 12.1870717,87.6251038 11.1667445,88.0481949 C10.1464173,88.4712861 8.97629547,87.9871306 8.55320434,86.9668033 C5.56026554,79.7490275 4,71.9815606 4,64 C4,47.8721108 10.3953272,32.7518591 21.5735931,21.5735931 Z M64,124 C62.8954305,124 62,123.104569 62,122 C62,120.895431 62.8954305,120 64,120 C94.927946,120 120,94.927946 120,64 C120,62.8954305 120.895431,62 122,62 C123.104569,62 124,62.8954305 124,64 C124,97.137085 97.137085,124 64,124 Z M63.9586187,87 C64.8885385,87 65.6821601,86.3277016 65.835038,85.4104344 L66.5483924,81.1303078 C66.6701288,80.3998895 67.1854759,79.79651 67.8878634,79.5620265 L69.0294728,79.180914 C69.7597537,78.9371186 70.4704489,78.6406945 71.1567247,78.294258 L72.2363594,77.7492512 C72.9001532,77.4141638 73.6950489,77.4749978 74.3001218,77.9071928 L77.8418956,80.4370312 C78.5986024,80.977536 79.6351644,80.8917476 80.2927169,80.234195 C80.9502695,79.5766424 81.036058,78.5400805 80.4955531,77.7833736 L77.9425865,74.2092204 C77.513695,73.6087723 77.4502653,72.820948 77.7775676,72.1596169 L78.3092296,71.0853666 C78.6361123,70.4248832 78.9168739,69.7422468 79.1492325,69.0417046 L79.5289626,67.8968498 C79.7625221,67.1926872 80.3666765,66.6756643 81.0984684,66.553699 L85.4104344,65.835038 C86.3277016,65.6821601 87,64.8885385 87,63.9586187 C87,63.028699 86.3277016,62.2350774 85.4104344,62.0821995 L81.075427,61.3596983 C80.3469336,61.2382827 79.744643,60.7252795 79.5088741,60.0253814 L79.125841,58.8883177 C78.8981047,58.2122645 78.6252106,57.5530893 78.3092296,56.9146334 L77.7775676,55.8403831 C77.4502653,55.179052 77.513695,54.3912277 77.9425865,53.7907796 L80.4955531,50.2166264 C81.036058,49.4599195 80.9502695,48.4233576 80.2927169,47.765805 C79.6351644,47.1082524 78.5986024,47.022464 77.8418956,47.5629688 L74.3001218,50.0928072 C73.6950489,50.5250022 72.9001532,50.5858362 72.2363594,50.2507488 L71.1567247,49.705742 C70.4704489,49.3593055 69.7597537,49.0628814 69.0294728,48.819086 L67.8878634,48.4379735 C67.1854759,48.20349 66.6701288,47.6001105 66.5483924,46.8696922 L65.835038,42.5895656 C65.6821601,41.6722984 64.8885385,41 63.9586187,41 C63.028699,41 62.2350774,41.6722984 62.0821995,42.5895656 L61.368845,46.8696922 C61.2471087,47.6001105 60.7317615,48.20349 60.0293741,48.4379735 L58.8877646,48.819086 C58.1946641,49.0504692 57.5191809,49.3292666 56.8654399,49.6532582 L55.7908139,50.1858388 C55.1293099,50.5136778 54.3409969,50.4504259 53.7402291,50.021306 L50.2166264,47.5044469 C49.4599195,46.963942 48.4233576,47.0497305 47.765805,47.7072831 C47.1082524,48.3648356 47.022464,49.4013976 47.5629688,50.1581044 L50.0567564,53.6494071 C50.489179,54.2547987 50.5498324,55.050182 50.2142065,55.7141425 L49.6682755,56.7941445 C49.3247799,57.4736734 49.030329,58.1771867 48.7874712,58.8999852 L48.4049851,60.0383479 C48.1695825,60.7389578 47.5669803,61.2526304 46.8379367,61.3741376 L41,62.3471271 L41,65.5701104 L46.8149757,66.539273 C47.5473168,66.6613299 48.1517805,67.1790234 48.384969,67.8838953 L48.7641436,69.0300479 C49.0113886,69.7774091 49.3136957,70.5043991 49.6682755,71.2058555 L50.2142065,72.2858575 C50.5498324,72.949818 50.489179,73.7452013 50.0567564,74.3505929 L47.5629688,77.8418956 C47.022464,78.5986024 47.1082524,79.6351644 47.765805,80.2927169 C48.4233576,80.9502695 49.4599195,81.036058 50.2166264,80.4955531 L53.7402291,77.978694 C54.3409969,77.5495741 55.1293099,77.4863222 55.7908139,77.8141612 L56.8654399,78.3467418 C57.5191809,78.6707334 58.1946641,78.9495308 58.8877646,79.180914 L60.0293741,79.5620265 C60.7317615,79.79651 61.2471087,80.3998895 61.368845,81.1303078 L62.0821995,85.4104344 C62.2350774,86.3277016 63.028699,87 63.9586187,87 Z M50.5409188,85.1795301 C49.3475644,86.0319261 47.7128683,85.8966345 46.6758839,84.85965 L43.1988719,81.3826381 C42.1618875,80.3456536 42.0265959,78.7109575 42.8789918,77.5176032 L46.0984415,73.0103736 C45.6570599,72.1371991 45.2778279,71.2272624 44.9665612,70.2863789 L39.506803,69.3764192 C38.0602391,69.1353253 37,67.8837549 37,66.4172375 L37,61.5 C37,60.0334825 38.0602391,58.7819122 39.506803,58.5408182 L44.9957784,57.625989 C45.3014594,56.7162154 45.6707771,55.8356645 46.0984415,54.9896264 L42.8789918,50.4823968 C42.0265959,49.2890425 42.1618875,47.6543464 43.1988719,46.6173619 L46.6758839,43.14035 C47.7128683,42.1033655 49.3475644,41.9680739 50.5409188,42.8204699 L55.089223,46.0692586 C55.9033397,45.6657853 56.7488592,45.3161248 57.6211308,45.0249275 L58.5408182,39.506803 C58.7819122,38.0602391 60.0334825,37 61.5,37 L66.4172375,37 C67.8837549,37 69.1353253,38.0602391 69.3764192,39.506803 L70.2961067,45.0249275 C71.2153629,45.33181 72.1049073,45.7036236 72.9592967,46.134925 L77.5176032,42.8789918 C78.7109575,42.0265959 80.3456536,42.1618875 81.3826381,43.1988719 L84.85965,46.6758839 C85.8966345,47.7128683 86.0319261,49.3475644 85.1795301,50.5409188 L81.8942013,55.1403792 C82.2877502,55.9355649 82.6299738,56.7606737 82.9165427,57.6113759 L88.493197,58.5408182 C89.9397609,58.7819122 91,60.0334825 91,61.5 L91,66.4172375 C91,67.8837549 89.9397609,69.1353253 88.493197,69.3764192 L82.9458401,70.3009787 C82.6533948,71.182677 82.3012517,72.0371546 81.8942013,72.8596208 L85.1795301,77.4590812 C86.0319261,78.6524356 85.8966345,80.2871317 84.85965,81.3241161 L81.3826381,84.8011281 C80.3456536,85.8381125 78.7109575,85.9734041 77.5176032,85.1210082 L72.9592967,81.865075 C72.1049073,82.2963764 71.2153629,82.66819 70.2961067,82.9750725 L69.3764192,88.493197 C69.1353253,89.9397609 67.8837549,91 66.4172375,91 L61.5,91 C60.0334825,91 58.7819122,89.9397609 58.5408182,88.493197 L57.6211308,82.9750725 C56.7488592,82.6838752 55.9033397,82.3342147 55.089223,81.9307414 L50.5409188,85.1795301 Z M60.1717562,54.7595231 C61.3757573,54.2602694 62.6714558,54 64,54 C66.6865064,54 69.2091048,55.0669692 71.0710678,56.9289322 C72.9330308,58.7908952 74,61.3134936 74,64 C74,69.5228475 69.5228475,74 64,74 C61.3134936,74 58.7908952,72.9330308 56.9289322,71.0710678 C56.0015419,70.1436775 55.2628503,69.0420684 54.7595231,67.8282438 C54.2602694,66.6242427 54,65.3285442 54,64 C54,62.8954305 54.8954305,62 56,62 C57.1045695,62 58,62.8954305 58,64 C58,64.800421 58.1557294,65.5756885 58.4544549,66.2960953 C58.756014,67.0233357 59.1996547,67.6849361 59.7573593,68.2426407 C60.8766132,69.3618946 62.3852639,70 64,70 C67.3137085,70 70,67.3137085 70,64 C70,62.3852639 69.3618946,60.8766132 68.2426407,59.7573593 C67.1233868,58.6381054 65.6147361,58 64,58 C63.199579,58 62.4243115,58.1557294 61.7039047,58.4544549 C60.6835775,58.877546 59.5134557,58.3933905 59.0903646,57.3730633 C58.6672734,56.352736 59.151429,55.1826142 60.1717562,54.7595231 Z M103,88 C101.895431,88 101,87.1045695 101,86 C101,84.8954305 101.895431,84 103,84 C104.104569,84 105,84.8954305 105,86 C105,87.1045695 104.104569,88 103,88 Z M36,101 C34.8954305,101 34,100.104569 34,99 C34,97.8954305 34.8954305,97 36,97 C37.1045695,97 38,97.8954305 38,99 C38,100.104569 37.1045695,101 36,101 Z" id="Shape" fill="#000000" fill-rule="nonzero"></path>
                        <circle id="Oval" fill-opacity="0.15" fill="#6714B3" cx="54" cy="74" r="50"></circle>
                    </g>
                </g>
            </g>
        </g>
    </g>
</svg>