<?xml version="1.0" encoding="UTF-8"?>
<svg width="120px" height="120px" viewBox="0 0 120 120" version="1.1" xmlns="http://www.w3.org/2000/svg" xmlns:xlink="http://www.w3.org/1999/xlink">
    <!-- Generator: Sketch 54.1 (76490) - https://sketchapp.com -->
    <title>Group 21</title>
    <desc>Created with Sketch.</desc>
    <g id="Main" stroke="none" stroke-width="1" fill="none" fill-rule="evenodd">
        <g id="1.-index_1440" transform="translate(-483.000000, -2553.000000)">
            <g id="Group-11" transform="translate(50.000000, 2349.000000)">
                <g id="Group-9" transform="translate(353.000000, 200.000000)">
                    <g id="Group-21" transform="translate(76.000000, 0.000000)">
                        <rect id="Rectangle" x="0" y="0" width="128" height="128"></rect>
                        <rect id="Rectangle-Copy-2" x="4" y="4" width="120" height="120"></rect>
                        <path d="M79.0526316,100 L60.9473684,100 L57.7894737,112 L82.2105263,112 L79.0526316,100 Z M83.0526316,100 L86.2105263,112 L93.3858116,112 C96.3433703,112 98.1484246,112.372037 99.8938656,113.303649 C101.54818,114.186623 102.858699,115.49453 103.743753,117.14614 C104.480264,118.520553 104.860775,119.913302 104.995256,121.862329 C105.071289,122.964279 104.23962,123.919223 103.137671,123.995256 C102.035721,124.071289 101.080777,123.23962 101.004744,122.137671 C100.908037,120.736092 100.677798,119.893372 100.218067,119.035462 C99.7065001,118.080822 98.9675341,117.343328 98.0103949,116.832464 C96.9026208,116.241201 95.7323591,116 93.3858116,116 L46.617944,116 C44.2673881,116 43.0974983,116.241014 41.9893744,116.832464 C41.0322352,117.343328 40.2932692,118.080822 39.7817024,119.035462 C39.3221085,119.893116 39.0920869,120.734745 38.9952414,122.136148 C38.9190905,123.23809 37.9640581,124.069657 36.8621167,123.993506 C35.7601753,123.917356 34.9286078,122.962323 35.0047586,121.860382 C35.139429,119.911633 35.5197368,118.52012 36.2560164,117.14614 C37.1410705,115.49453 38.4515889,114.186623 40.1059037,113.303649 C41.8518333,112.371776 43.6564461,112 46.617944,112 L53.7894737,112 L56.9473684,100 L28.2555408,100 C24.7023449,100 22.9603893,99.6636129 21.1494195,98.6950956 C19.4971788,97.8114676 18.1885324,96.5028212 17.3049044,94.8505805 C16.3363871,93.0396107 16,91.2976551 16,87.7444592 L16,30.2555408 C16,26.7023449 16.3363871,24.9603893 17.3049044,23.1494195 C18.1885324,21.4971788 19.4971788,20.1885324 21.1494195,19.3049044 C22.9603893,18.3363871 24.7023449,18 28.2555408,18 L111.744459,18 C115.297655,18 117.039611,18.3363871 118.850581,19.3049044 C120.502821,20.1885324 121.811468,21.4971788 122.695096,23.1494195 C123.663613,24.9603893 124,26.7023449 124,30.2555408 L124,87.7444592 C124,91.2976551 123.663613,93.0396107 122.695096,94.8505805 C121.811468,96.5028212 120.502821,97.8114676 118.850581,98.6950956 C117.039611,99.6636129 115.297655,100 111.744459,100 L109,100 C107.895431,100 107,99.1045695 107,98 C107,96.8954305 107.895431,96 109,96 L111.744459,96 C114.693796,96 115.811922,95.78408 116.964185,95.1678428 C117.919352,94.657014 118.657014,93.9193519 119.167843,92.9641851 C119.78408,91.8119216 120,90.6937963 120,87.7444592 L120,30.2555408 C120,27.3062037 119.78408,26.1880784 119.167843,25.0358149 C118.657014,24.0806481 117.919352,23.342986 116.964185,22.8321572 C115.811922,22.21592 114.693796,22 111.744459,22 L28.2555408,22 C25.3062037,22 24.1880784,22.21592 23.0358149,22.8321572 C22.0806481,23.342986 21.342986,24.0806481 20.8321572,25.0358149 C20.21592,26.1880784 20,27.3062037 20,30.2555408 L20,87.7444592 C20,90.6937963 20.21592,91.8119216 20.8321572,92.9641851 C21.342986,93.9193519 22.0806481,94.657014 23.0358149,95.1678428 C24.1880784,95.78408 25.3062037,96 28.2555408,96 L96,96 C97.1045695,96 98,96.8954305 98,98 C98,99.1045695 97.1045695,100 96,100 L83.0526316,100 Z M70,92 C68.3431458,92 67,90.6568542 67,89 C67,87.3431458 68.3431458,86 70,86 C71.6568542,86 73,87.3431458 73,89 C73,90.6568542 71.6568542,92 70,92 Z M102.25,31 C101.145431,31 100.25,30.1045695 100.25,29 C100.25,27.8954305 101.145431,27 102.25,27 L107.87223,27 C109.799792,27 110.826728,27.1983104 111.896889,27.770639 C112.897278,28.3056528 113.694347,29.1027221 114.229361,30.1031109 C114.80169,31.1732724 115,32.2002077 115,34.1277704 L115,74.8722296 C115,76.7997923 114.80169,77.8267276 114.229361,78.8968891 C113.694347,79.8972779 112.897278,80.6943472 111.896889,81.229361 C110.826728,81.8016896 109.799792,82 107.87223,82 L53.9844534,82 C52.8798839,82 51.9844534,81.1045695 51.9844534,80 C51.9844534,78.8954305 52.8798839,78 53.9844534,78 L107.87223,78 C109.195933,78 109.599039,77.9221568 110.010494,77.7021082 C110.313809,77.5398936 110.539894,77.3138086 110.702108,77.0104937 C110.922157,76.5990386 111,76.1959334 111,74.8722296 L111,34.1277704 C111,32.8040666 110.922157,32.4009614 110.702108,31.9895063 C110.539894,31.6861914 110.313809,31.4601064 110.010494,31.2978918 C109.599039,31.0778432 109.195933,31 107.87223,31 L102.25,31 Z M38,78 C39.1045695,78 40,78.8954305 40,80 C40,81.1045695 39.1045695,82 38,82 L32.1277704,82 C30.2002077,82 29.1732724,81.8016896 28.1031109,81.229361 C27.1027221,80.6943472 26.3056528,79.8972779 25.770639,78.8968891 C25.1983104,77.8267276 25,76.7997923 25,74.8722296 L25,34.1277704 C25,32.2002077 25.1983104,31.1732724 25.770639,30.1031109 C26.3056528,29.1027221 27.1027221,28.3056528 28.1031109,27.770639 C29.1732724,27.1983104 30.2002077,27 32.1277704,27 L85.75,27 C86.8545695,27 87.75,27.8954305 87.75,29 C87.75,30.1045695 86.8545695,31 85.75,31 L32.1277704,31 C30.8040666,31 30.4009614,31.0778432 29.9895063,31.2978918 C29.6861914,31.4601064 29.4601064,31.6861914 29.2978918,31.9895063 C29.0778432,32.4009614 29,32.8040666 29,34.1277704 L29,74.8722296 C29,76.1959334 29.0778432,76.5990386 29.2978918,77.0104937 C29.4601064,77.3138086 29.6861914,77.5398936 29.9895063,77.7021082 C30.4009614,77.9221568 30.8040666,78 32.1277704,78 L38,78 Z M94,31 C92.8954305,31 92,30.1045695 92,29 C92,27.8954305 92.8954305,27 94,27 C95.1045695,27 96,27.8954305 96,29 C96,30.1045695 95.1045695,31 94,31 Z M46,82 C44.8954305,82 44,81.1045695 44,80 C44,78.8954305 44.8954305,78 46,78 C47.1045695,78 48,78.8954305 48,80 C48,81.1045695 47.1045695,82 46,82 Z M8,64 C8,65.1045695 7.1045695,66 6,66 C4.8954305,66 4,65.1045695 4,64 L4,50.8936357 C4,49.7890662 4.8954305,48.8936357 6,48.8936357 C7.1045695,48.8936357 8,49.7890662 8,50.8936357 L8,64 Z M8,35 C8,36.1045695 7.1045695,37 6,37 C4.8954305,37 4,36.1045695 4,35 L4,21.3833112 C4,16.204482 4.47446391,13.7475063 5.83916983,11.1957281 C7.07141198,8.89163556 8.89163556,7.07141198 11.1957281,5.83916983 C13.7475063,4.47446391 16.204482,4 21.3833112,4 L35,4 C36.1045695,4 37,4.8954305 37,6 C37,7.1045695 36.1045695,8 35,8 L21.3833112,8 C16.8083409,8 14.9751953,8.35399674 13.0821235,9.36642262 C11.4751049,10.2258656 10.2258656,11.4751049 9.36642262,13.0821235 C8.35399674,14.9751953 8,16.8083409 8,21.3833112 L8,35 Z M44,58 L44,65 C44,65.5522847 44.4477153,66 45,66 L47,66 C47.5522847,66 48,65.5522847 48,65 L48,58 C48,57.4477153 47.5522847,57 47,57 L45,57 C44.4477153,57 44,57.4477153 44,58 Z M44.5638852,53 L47.4361148,53 C48.5508608,53 49.2202861,53.129272 49.9200434,53.5035063 C50.5945063,53.864213 51.135787,54.4054937 51.4964937,55.0799566 C51.870728,55.7797139 52,56.4491392 52,57.5638852 L52,65.4361148 C52,66.5508608 51.870728,67.2202861 51.4964937,67.9200434 C51.135787,68.5945063 50.5945063,69.135787 49.9200434,69.4964937 C49.2202861,69.870728 48.5508608,70 47.4361148,70 L44.5638852,70 C43.4491392,70 42.7797139,69.870728 42.0799566,69.4964937 C41.4054937,69.135787 40.864213,68.5945063 40.5035063,67.9200434 C40.129272,67.2202861 40,66.5508608 40,65.4361148 L40,57.5638852 C40,56.4491392 40.129272,55.7797139 40.5035063,55.0799566 C40.864213,54.4054937 41.4054937,53.864213 42.0799566,53.5035063 C42.7797139,53.129272 43.4491392,53 44.5638852,53 Z M60,44 L60,65 C60,65.5522847 60.4477153,66 61,66 L63,66 C63.5522847,66 64,65.5522847 64,65 L64,44 C64,43.4477153 63.5522847,43 63,43 L61,43 C60.4477153,43 60,43.4477153 60,44 Z M60.5638852,39 L63.4361148,39 C64.5508608,39 65.2202861,39.129272 65.9200434,39.5035063 C66.5945063,39.864213 67.135787,40.4054937 67.4964937,41.0799566 C67.870728,41.7797139 68,42.4491392 68,43.5638852 L68,65.4361148 C68,66.5508608 67.870728,67.2202861 67.4964937,67.9200434 C67.135787,68.5945063 66.5945063,69.135787 65.9200434,69.4964937 C65.2202861,69.870728 64.5508608,70 63.4361148,70 L60.5638852,70 C59.4491392,70 58.7797139,69.870728 58.0799566,69.4964937 C57.4054937,69.135787 56.864213,68.5945063 56.5035063,67.9200434 C56.129272,67.2202861 56,66.5508608 56,65.4361148 L56,43.5638852 C56,42.4491392 56.129272,41.7797139 56.5035063,41.0799566 C56.864213,40.4054937 57.4054937,39.864213 58.0799566,39.5035063 C58.7797139,39.129272 59.4491392,39 60.5638852,39 Z M76.0223963,51.0223963 L76.0223963,64.9776037 C76.0223963,65.5298884 76.4701116,65.9776037 77.0223963,65.9776037 L78.9776037,65.9776037 C79.5298884,65.9776037 79.9776037,65.5298884 79.9776037,64.9776037 L79.9776037,51.0223963 C79.9776037,50.4701116 79.5298884,50.0223963 78.9776037,50.0223963 L77.0223963,50.0223963 C76.4701116,50.0223963 76.0223963,50.4701116 76.0223963,51.0223963 Z M76.5638852,46 L79.4361148,46 C80.5508608,46 81.2202861,46.129272 81.9200434,46.5035063 C82.5945063,46.864213 83.135787,47.4054937 83.4964937,48.0799566 C83.870728,48.7797139 84,49.4491392 84,50.5638852 L84,65.4361148 C84,66.5508608 83.870728,67.2202861 83.4964937,67.9200434 C83.135787,68.5945063 82.5945063,69.135787 81.9200434,69.4964937 C81.2202861,69.870728 80.5508608,70 79.4361148,70 L76.5638852,70 C75.4491392,70 74.7797139,69.870728 74.0799566,69.4964937 C73.4054937,69.135787 72.864213,68.5945063 72.5035063,67.9200434 C72.129272,67.2202861 72,66.5508608 72,65.4361148 L72,50.5638852 C72,49.4491392 72.129272,48.7797139 72.5035063,48.0799566 C72.864213,47.4054937 73.4054937,46.864213 74.0799566,46.5035063 C74.7797139,46.129272 75.4491392,46 76.5638852,46 Z M92.0223963,62.0223963 L92.0223963,64.9776037 C92.0223963,65.5298884 92.4701116,65.9776037 93.0223963,65.9776037 L94.9776037,65.9776037 C95.5298884,65.9776037 95.9776037,65.5298884 95.9776037,64.9776037 L95.9776037,62.0223963 C95.9776037,61.4701116 95.5298884,61.0223963 94.9776037,61.0223963 L93.0223963,61.0223963 C92.4701116,61.0223963 92.0223963,61.4701116 92.0223963,62.0223963 Z M92.5638852,57 L95.4361148,57 C96.5508608,57 97.2202861,57.129272 97.9200434,57.5035063 C98.5945063,57.864213 99.135787,58.4054937 99.4964937,59.0799566 C99.870728,59.7797139 100,60.4491392 100,61.5638852 L100,65.4361148 C100,66.5508608 99.870728,67.2202861 99.4964937,67.9200434 C99.135787,68.5945063 98.5945063,69.135787 97.9200434,69.4964937 C97.2202861,69.870728 96.5508608,70 95.4361148,70 L92.5638852,70 C91.4491392,70 90.7797139,69.870728 90.0799566,69.4964937 C89.4054937,69.135787 88.864213,68.5945063 88.5035063,67.9200434 C88.129272,67.2202861 88,66.5508608 88,65.4361148 L88,61.5638852 C88,60.4491392 88.129272,59.7797139 88.5035063,59.0799566 C88.864213,58.4054937 89.4054937,57.864213 90.0799566,57.5035063 C90.7797139,57.129272 91.4491392,57 92.5638852,57 Z M6,45 C4.8954305,45 4,44.1045695 4,43 C4,41.8954305 4.8954305,41 6,41 C7.1045695,41 8,41.8954305 8,43 C8,44.1045695 7.1045695,45 6,45 Z" id="Shape" fill="#000000" fill-rule="nonzero"></path>
                        <path d="M20,4 L99,4 C107.836556,4 115,11.163444 115,20 L115,79 C115,83.418278 111.418278,87 107,87 L20,87 C11.163444,87 4,79.836556 4,71 L4,20 C4,11.163444 11.163444,4 20,4 Z" id="Rectangle" fill-opacity="0.15" fill="#6714B3"></path>
                    </g>
                </g>
            </g>
        </g>
    </g>
</svg>