<?xml version="1.0" encoding="UTF-8"?>
<svg width="123px" height="115px" viewBox="0 0 123 115" version="1.1" xmlns="http://www.w3.org/2000/svg" xmlns:xlink="http://www.w3.org/1999/xlink">
    <!-- Generator: Sketch 54.1 (76490) - https://sketchapp.com -->
    <title>Group 21</title>
    <desc>Created with Sketch.</desc>
    <g id="Main" stroke="none" stroke-width="1" fill="none" fill-rule="evenodd">
        <g id="1.-index_1440" transform="translate(-834.000000, -2655.000000)">
            <g id="Group-11" transform="translate(50.000000, 2349.000000)">
                <g id="Group-9" transform="translate(707.000000, 300.000000)">
                    <g id="Group-21" transform="translate(76.000000, 0.000000)">
                        <rect id="Rectangle" x="0" y="0" width="128" height="128"></rect>
                        <rect id="Rectangle-Copy-2" x="4" y="4" width="120" height="120"></rect>
                        <path d="M14.3129075,50.7884379 C12.7607145,42.69991 13.9234631,35.8792873 18.2411256,31.5724049 C26.2446235,23.5888898 42.9071341,26.4188205 60.2736658,37.2668671 C77.6401975,26.4188205 94.302708,23.5888898 102.306206,31.5724049 C108.075183,37.3269781 108.211834,47.5692186 103.765644,59.3273852 C114.112036,65.9925032 119.98274,74.1261291 118.864493,82.0630009 C118.032063,87.9712632 113.446664,92.9194895 106.294692,96.5324087 C107.75525,104.480394 106.56666,111.177779 102.306206,115.427595 C94.302708,123.41111 77.6401975,120.58118 60.2736658,109.733133 C42.9071341,120.58118 26.2446235,123.41111 18.2411256,115.427595 C12.6010311,109.801583 12.3444139,99.8861775 16.490569,88.4583659 C5.98501319,81.7628954 0.00806227887,73.5607365 1.13550677,65.5585815 C1.99127664,59.4846655 6.81341342,54.4253745 14.3129075,50.7884379 Z" id="Combined-Shape" fill-opacity="0.15" fill="#6714B3"></path>
                        <path d="M85.443782,83.0969527 C89.7655546,82.2957422 93.8540906,81.2529571 97.6213009,79.9904654 C96.5613029,76.2445521 95.225907,72.3662955 93.631354,68.4229448 C92.1193416,71.5411522 90.4663226,74.6589846 88.681724,77.75 C87.628229,79.5747069 86.5475789,81.358156 85.443782,83.0969527 L85.443782,83.0969527 Z M80.1077817,83.9468996 C81.8660346,81.3310705 83.5754324,78.5943566 85.2176224,75.75 C87.56135,71.6905447 89.6702509,67.5864416 91.5216044,63.5027566 C89.6776505,59.4335168 87.5705609,55.3254091 85.2176224,51.25 C82.1448006,45.9277166 78.8446865,40.9930137 75.4348288,36.5257017 C71.7459632,36.1817385 67.9217129,36 64,36 C60.1098103,36 56.2833021,36.1786025 52.566558,36.523885 C49.1562082,40.9916759 45.8556159,45.9269951 42.7823776,51.25 C40.4328034,55.319582 38.3248055,59.4264976 36.4781565,63.5003096 C38.3254644,67.5753398 40.433648,71.681881 42.7823776,75.75 C49.2178716,86.8966025 56.6503168,96.3431969 63.9998922,103.356634 C68.395775,99.1595853 72.8158094,94.0979897 77.028064,88.3391942 C72.8015881,88.7748661 68.4382004,89 64,89 C60.9336366,89 57.8962493,88.8929319 54.9056566,88.6812112 C53.8038448,88.6032078 52.9738842,87.6467786 53.0518876,86.5449668 C53.129891,85.443155 54.0863202,84.6131943 55.188132,84.6911977 C58.0845753,84.8962531 61.0277458,85 64,85 C69.5406252,85 74.9541243,84.6379844 80.1077817,83.9468996 L80.1077817,83.9468996 Z M82.4262252,87.657498 C77.528954,94.7592817 72.2720325,100.984074 66.9715283,106.064188 C77.5539043,115.249279 87.6565414,119.123922 94,115.461524 C94.9565852,114.909239 96.1797661,115.23699 96.7320508,116.193575 C97.2843356,117.15016 96.9565852,118.373341 96,118.925626 C87.842563,123.635324 75.9696057,119.267481 63.9968281,108.791082 C53.1889061,118.248659 42.4452767,122.74884 34.4374995,120.028999 C33.5873367,119.740242 32.7737004,119.372322 32,118.925626 C31.0434148,118.373341 30.7156644,117.15016 31.2679492,116.193575 C31.8202339,115.23699 33.0434148,114.909239 34,115.461524 C34.5460176,115.776768 35.1205752,116.036578 35.7239216,116.241504 C42.1347901,118.418955 51.394658,114.431817 61.0259117,106.067784 C53.3965148,98.7559149 45.8481346,89.0600468 39.318276,77.75 C37.5310667,74.6544626 35.8781138,71.5351748 34.367963,68.4201985 C32.7757372,72.3571254 31.439852,76.2354453 30.3786655,79.9897591 C32.629643,80.7437187 35.0058351,81.4228952 37.4879245,82.0198992 C38.5618659,82.2782087 39.2230661,83.3582114 38.9647566,84.4321527 C38.7064471,85.506094 37.6264445,86.1672943 36.5525031,85.9089848 C34.0550696,85.3082902 31.6549675,84.626515 29.369423,83.8696326 C28.4308017,87.8302167 27.8213731,91.6188696 27.564403,95.1527105 C27.5417174,95.464681 27.5218376,95.7742141 27.5047658,96.0812495 C27.4434442,97.1841155 26.4996837,98.0284541 25.3968177,97.9671325 C24.2939517,97.9058109 23.4496131,96.9620504 23.5109347,95.8591844 C23.5292733,95.529364 23.5506097,95.1971528 23.5749367,94.8626087 C23.8570296,90.9832822 24.5358724,86.8330824 25.5835722,82.5062271 C24.402795,82.0446068 23.2595386,81.5613505 22.1566578,81.057448 C16.5431658,78.4926629 12.036799,75.4221651 8.91966396,71.9875424 C8.12665033,71.1137584 7.42415823,70.2171457 6.81592039,69.2998176 C6.20552003,68.379228 6.4569781,67.1381154 7.37756768,66.527715 C8.29815727,65.9173147 9.53926984,66.1687728 10.1496702,67.0893623 C10.6436541,67.8343757 11.2215866,68.572009 11.8816765,69.2993307 C14.5999673,72.294486 18.6655093,75.0646195 23.8189556,77.4192114 C24.7203802,77.8310692 25.6521616,78.2288887 26.612453,78.6119634 C28.0120177,73.7144105 29.8536207,68.6345544 32.0994026,63.5002783 C29.0130281,56.4445394 26.6884737,49.4876238 25.2262413,42.9595646 C24.7499909,43.1626708 24.2808165,43.369766 23.8189556,43.5807886 C18.6655093,45.9353805 14.5999673,48.705514 11.8816765,51.7006693 C11.2215866,52.427991 10.6436541,53.1656243 10.1496702,53.9106377 C9.53926984,54.8312272 8.29815727,55.0826853 7.37756768,54.472285 C6.4569781,53.8618846 6.20552003,52.620772 6.81592039,51.7001824 C7.42415823,50.7828543 8.12665033,49.8862416 8.91966396,49.0124576 C12.036799,45.5778349 16.5431658,42.5073371 22.1566578,39.942552 C22.8972869,39.6041611 23.654933,39.2755294 24.4287487,38.9568637 C24.1502603,37.35319 23.928349,35.7813737 23.7646443,34.2467662 C23.6474788,33.1484283 24.4428762,32.1630682 25.541214,32.0459027 C26.6395518,31.9287372 27.624912,32.7241345 27.7420775,33.8224724 C27.8706313,35.0275673 28.0374455,36.2585204 28.2416522,37.5123467 C34.8350173,35.2179873 42.3793227,33.5841735 50.4388779,32.7171411 C53.885292,28.3174703 57.4463086,24.3629155 61.0251592,20.9329371 C50.4439874,11.7499122 40.3427967,7.87646038 34,11.5384758 C33.3162759,11.933224 32.6852009,12.4103384 32.1058116,12.9697694 C31.3111968,13.7370119 30.0450613,13.7148223 29.2778187,12.9202075 C28.5105762,12.1255927 28.5327658,10.8594572 29.3273806,10.0922147 C30.1398272,9.30775458 31.031956,8.63327461 32,8.07437416 C40.1567166,3.36509164 52.0282973,7.73174735 64,18.2061428 C75.9717027,7.73174735 87.8432834,3.36509164 96,8.07437416 C102.483398,11.8175656 105.280283,20.472675 104.422459,32.1730578 C104.341693,33.2746706 103.383186,34.1022307 102.281573,34.021465 C101.179961,33.9406993 100.352401,32.9821922 100.433166,31.8805795 C101.190932,21.544947 98.8650232,14.3472983 94,11.5384758 C87.6572033,7.87646038 77.5560126,11.7499122 66.9748408,20.9329371 C70.5525899,24.3618598 74.112516,28.3150361 77.5579399,32.7130789 C104.090335,35.5574652 124,46.6139744 124,60.5 C124,61.4830439 123.899153,62.4602491 123.699164,63.4277531 C123.47557,64.5094553 122.417419,65.2050894 121.335717,64.9814955 C120.254014,64.7579015 119.55838,63.69975 119.781974,62.6180478 C119.927147,61.9157335 120,61.2097869 120,60.5 C120,49.8842346 103.627373,40.3884374 80.8965707,37.165793 C83.6032635,40.9358822 86.2151576,44.9777816 88.681724,49.25 C90.4710449,52.3491947 92.1237008,55.4691335 93.6322109,58.5815412 C95.1507845,54.8255851 96.4407324,51.1096022 97.4840215,47.4852349 C97.7895695,46.4237669 98.8977548,45.8109726 99.9592228,46.1165206 C101.020691,46.4220685 101.633485,47.5302539 101.327937,48.5917218 C99.9291082,53.4512278 98.1065849,58.4589428 95.9005189,63.5022451 C98.1490764,68.6439945 99.9893088,73.7238079 101.386967,78.6122365 C101.698889,78.4877785 102.008074,78.3616692 102.314463,78.2339238 C103.333967,77.8088529 104.505026,78.2907362 104.930097,79.3102403 C105.355168,80.3297444 104.873284,81.5008037 103.85378,81.9258746 C103.380681,82.1231283 102.901514,82.3166134 102.416476,82.5062842 C104.165802,89.7246635 104.88329,96.4265316 104.45072,102.165063 C104.367693,103.266508 103.40749,104.092099 102.306045,104.009072 C101.2046,103.926045 100.379009,102.965841 100.462036,101.864397 C100.854473,96.6582755 100.211466,90.5237185 98.6318234,83.8697835 C93.6734092,85.512518 88.2131959,86.7887972 82.4262252,87.657498 L82.4262252,87.657498 Z M64,23.6432636 C61.3207995,26.1999203 58.630586,29.0799151 55.9816688,32.2477322 C58.6168382,32.0837229 61.2943132,32 64,32 C66.7169365,32 69.3931015,32.0835464 72.0168003,32.2459014 C69.3683775,29.0788054 66.6786843,26.1994277 64,23.6432636 L64,23.6432636 Z M34.3678589,58.5803304 C35.8777008,55.4658144 37.5306214,52.3463085 39.318276,49.25 C41.7857759,44.9761648 44.3987135,40.932823 47.1065024,37.1615128 C40.5329124,38.0904446 34.4027012,39.5565109 28.9973451,41.486888 C30.1712556,46.9119369 31.9825407,52.6823816 34.3678589,58.5803304 L34.3678589,58.5803304 Z M64,57 C60.1340068,57 57,53.8659932 57,50 C57,46.1340068 60.1340068,43 64,43 C67.8659932,43 71,46.1340068 71,50 C71,53.8659932 67.8659932,57 64,57 Z M64,53 C65.6568542,53 67,51.6568542 67,50 C67,48.3431458 65.6568542,47 64,47 C62.3431458,47 61,48.3431458 61,50 C61,51.6568542 62.3431458,53 64,53 Z M26,29 C22.1340068,29 19,25.8659932 19,22 C19,18.1340068 22.1340068,15 26,15 C29.8659932,15 33,18.1340068 33,22 C33,25.8659932 29.8659932,29 26,29 Z M26,25 C27.6568542,25 29,23.6568542 29,22 C29,20.3431458 27.6568542,19 26,19 C24.3431458,19 23,20.3431458 23,22 C23,23.6568542 24.3431458,25 26,25 Z M26,115 C22.1340068,115 19,111.865993 19,108 C19,104.134007 22.1340068,101 26,101 C29.8659932,101 33,104.134007 33,108 C33,111.865993 29.8659932,115 26,115 Z M26,111 C27.6568542,111 29,109.656854 29,108 C29,106.343146 27.6568542,105 26,105 C24.3431458,105 23,106.343146 23,108 C23,109.656854 24.3431458,111 26,111 Z M114,81 C110.134007,81 107,77.8659932 107,74 C107,70.1340068 110.134007,67 114,67 C117.865993,67 121,70.1340068 121,74 C121,77.8659932 117.865993,81 114,81 Z M114,77 C115.656854,77 117,75.6568542 117,74 C117,72.3431458 115.656854,71 114,71 C112.343146,71 111,72.3431458 111,74 C111,75.6568542 112.343146,77 114,77 Z M55,74 C55,75.1045695 54.1045695,76 53,76 C51.8954305,76 51,75.1045695 51,74 C51,66.0075632 56.230333,60 64,60 C71.769667,60 77,66.0075632 77,74 C77,75.1045695 76.1045695,76 75,76 C73.8954305,76 73,75.1045695 73,74 C73,68.102997 69.4278295,64 64,64 C58.5721705,64 55,68.102997 55,74 Z M100,112 C98.8954305,112 98,111.104569 98,110 C98,108.895431 98.8954305,108 100,108 C101.104569,108 102,108.895431 102,110 C102,111.104569 101.104569,112 100,112 Z" id="Shape" fill="#000000" fill-rule="nonzero"></path>
                    </g>
                </g>
            </g>
        </g>
    </g>
</svg>