<?xml version="1.0" encoding="UTF-8"?>
<svg width="110px" height="120px" viewBox="0 0 110 120" version="1.1" xmlns="http://www.w3.org/2000/svg" xmlns:xlink="http://www.w3.org/1999/xlink">
    <!-- Generator: Sketch 54.1 (76490) - https://sketchapp.com -->
    <title>Group 21</title>
    <desc>Created with Sketch.</desc>
    <g id="Main" stroke="none" stroke-width="1" fill="none" fill-rule="evenodd">
        <g id="1.-index_1440" transform="translate(-1200.000000, -2553.000000)">
            <g id="Group-11" transform="translate(50.000000, 2349.000000)">
                <g id="Group-9" transform="translate(1060.000000, 200.000000)">
                    <g id="Group-21" transform="translate(76.000000, 0.000000)">
                        <rect id="Rectangle" x="0" y="0" width="128" height="128"></rect>
                        <rect id="Rectangle-Copy-2" x="4" y="4" width="120" height="120"></rect>
                        <circle id="Oval" fill-opacity="0.15" fill="#6714B3" cx="74" cy="74" r="50"></circle>
                        <path d="M55.5329799,113.2847 C55.4956313,113.329164 55.4560425,113.372385 55.4142136,113.414214 L45.4142136,123.414214 C44.633165,124.195262 43.366835,124.195262 42.5857864,123.414214 C41.8047379,122.633165 41.8047379,121.366835 42.5857864,120.585786 L50.9052085,112.266364 C42.5095145,109.995124 34.8484009,105.559079 28.6446609,99.3553391 C26.328935,97.0396131 24.2438698,94.5022594 22.4222609,91.7812024 C21.8077891,90.8633254 22.0537476,89.6211113 22.9716246,89.0066395 C23.8895015,88.3921676 25.1317157,88.6381261 25.7461875,89.5560031 C27.4225439,92.0600868 29.3416128,94.3954367 31.4730881,96.5269119 C40.0453843,105.099208 51.6321576,110 64,110 C76.3678424,110 87.9546157,105.099208 96.5269119,96.5269119 C97.3079605,95.7458634 98.5742905,95.7458634 99.3553391,96.5269119 C100.136388,97.3079605 100.136388,98.5742905 99.3553391,99.3553391 C93.1515991,105.559079 85.4904855,109.995124 77.0947915,112.266364 L85.4142136,120.585786 C86.1952621,121.366835 86.1952621,122.633165 85.4142136,123.414214 C84.633165,124.195262 83.366835,124.195262 82.5857864,123.414214 L72.5857864,113.414214 C72.5439575,113.372385 72.5043687,113.329164 72.4670201,113.2847 C70.344232,113.647035 68.1849828,113.874288 66,113.960565 L66,122 C66,123.104569 65.1045695,124 64,124 C62.8954305,124 62,123.104569 62,122 L62,113.960565 C59.8150172,113.874288 57.655768,113.647035 55.5329799,113.2847 L55.5329799,113.2847 Z M105.638177,25.1902497 L100.741433,30.0869943 C108.971627,38.9991888 114,50.9123747 114,64 C114,65.1045695 113.104569,66 112,66 C110.895431,66 110,65.1045695 110,64 C110,52.0169722 105.418042,41.104118 97.9105581,32.917869 L83.7448506,47.0835765 C87.644195,51.6306461 90,57.5402092 90,64 C90,78.3594035 78.3594035,90 64,90 C60.5424905,90 57.1758262,89.3237319 54.0474172,88.0264989 C53.0270899,87.6034078 52.5429344,86.433286 52.9660255,85.4129587 C53.3891167,84.3926315 54.5592385,83.908476 55.5795657,84.3315671 C58.2243804,85.4282718 61.0706138,86 64,86 C76.1502645,86 86,76.1502645 86,64 C86,58.6450063 84.086753,53.7368753 80.9065395,49.9218876 L65.9142136,64.9142136 C65.133165,65.6952621 63.866835,65.6952621 63.0857864,64.9142136 C62.3047379,64.133165 62.3047379,62.866835 63.0857864,62.0857864 L78.0781124,47.0934605 C74.2631247,43.913247 69.3549937,42 64,42 C51.8497355,42 42,51.8497355 42,64 C42,66.9293862 42.5717282,69.7756196 43.6684329,72.4204343 C44.091524,73.4407615 43.6073685,74.6108833 42.5870413,75.0339745 C41.566714,75.4570656 40.3965922,74.9729101 39.9735011,73.9525828 C38.6762681,70.8241738 38,67.4575095 38,64 C38,49.6405965 49.6405965,38 64,38 C70.4597908,38 76.3693539,40.355805 80.9164235,44.2551494 L95.082131,30.0894419 C86.895882,22.5819578 75.9830278,18 64,18 C38.5949015,18 18,38.5949015 18,64 C18,67.0416825 18.294942,70.044344 18.875548,72.9793245 C19.0899031,74.0628953 18.3852644,75.1150721 17.3016936,75.3294271 C16.2181228,75.5437821 15.165946,74.8391435 14.951591,73.7555726 C14.3204787,70.5652814 14,67.3026434 14,64 C14,36.3857625 36.3857625,14 64,14 C77.0876253,14 89.0008112,19.028373 97.9130057,27.2585672 L102.716665,22.4549083 L98.8052726,13.7914784 C98.29184,12.654265 98.5359083,11.3179817 99.4181973,10.4356928 L104.764925,5.08896529 C105.936498,3.91739242 107.835993,3.91739242 109.007565,5.08896529 C109.263748,5.3451483 109.471409,5.64561699 109.62049,5.97582035 L112.598871,12.5727024 L117.585786,7.58578644 C118.366835,6.80473785 119.633165,6.80473785 120.414214,7.58578644 C121.195262,8.36683502 121.195262,9.63316498 120.414214,10.4142136 L115.520214,15.3082127 L121.77748,18.1333202 C123.287556,18.8151082 123.959017,20.5919655 123.277229,22.102042 C123.128148,22.4322371 122.920491,22.7326985 122.664314,22.988876 L117.317742,28.3354477 C116.435447,29.2177426 115.099152,29.4618077 113.961935,28.9483628 L105.638177,25.1902497 L105.638177,25.1902497 Z M112.660999,18.4060943 L108.826249,22.2408443 L114.978016,25.0183198 L118.812766,21.1835699 L112.660999,18.4060943 L112.660999,18.4060943 Z M105.512757,18.927229 L109.347659,15.0923277 L106.570222,8.94052188 L102.735321,12.7754232 L105.512757,18.927229 L105.512757,18.927229 Z M26,64 C26,62.8954305 26.8954305,62 28,62 C29.1045695,62 30,62.8954305 30,64 C30,82.7776815 45.2223185,98 64,98 C82.7776815,98 98,82.7776815 98,64 C98,59.4738898 97.1162727,55.074432 95.4210836,50.9863114 C94.9979925,49.9659842 95.482148,48.7958624 96.5024752,48.3727713 C97.5228025,47.9496801 98.6929243,48.4338356 99.1160154,49.4541629 C101.011733,54.0258778 102,58.9457666 102,64 C102,84.9868205 84.9868205,102 64,102 C43.0131795,102 26,84.9868205 26,64 Z M78.5458371,28.8839846 C79.5661644,29.3070757 80.0503199,30.4771975 79.6272287,31.4975248 C79.2041376,32.517852 78.0340158,33.0020075 77.0136886,32.5789164 C72.925568,30.8837273 68.5261102,30 64,30 C54.8580895,30 46.294753,33.6219859 39.9583694,39.9583694 C39.1773209,40.739418 37.9109909,40.739418 37.1299423,39.9583694 C36.3488937,39.1773209 36.3488937,37.9109909 37.1299423,37.1299423 C44.209035,30.0508496 53.7863192,26 64,26 C69.0542334,26 73.9741222,26.9882672 78.5458371,28.8839846 Z M64,50 C65.1045695,50 66,50.8954305 66,52 C66,53.1045695 65.1045695,54 64,54 C58.4771525,54 54,58.4771525 54,64 C54,67.9623609 56.3248965,71.500688 59.8706161,73.1108197 C61.1553551,73.694227 62.5541997,74 64,74 C66.8923323,74 69.5812143,72.7679831 71.4687112,70.6498748 C73.0902564,68.8302117 74,66.4884721 74,64 C74,62.8954305 74.8954305,62 76,62 C77.1045695,62 78,62.8954305 78,64 C78,67.4794052 76.7233411,70.7656089 74.455032,73.3110565 C71.816339,76.2721409 68.0452793,78 64,78 C61.9808334,78 60.018382,77.5710284 58.2167316,76.7528886 C53.2550269,74.4997499 50,69.5458306 50,64 C50,56.2680135 56.2680135,50 64,50 Z M47,82 C45.8954305,82 45,81.1045695 45,80 C45,78.8954305 45.8954305,78 47,78 C48.1045695,78 49,78.8954305 49,80 C49,81.1045695 48.1045695,82 47,82 Z M19.3838042,84.3767861 C18.2792347,84.3767861 17.3838042,83.4813556 17.3838042,82.3767861 C17.3838042,81.2722166 18.2792347,80.3767861 19.3838042,80.3767861 C20.4883737,80.3767861 21.3838042,81.2722166 21.3838042,82.3767861 C21.3838042,83.4813556 20.4883737,84.3767861 19.3838042,84.3767861 Z" id="Shape" fill="#000000" fill-rule="nonzero"></path>
                    </g>
                </g>
            </g>
        </g>
    </g>
</svg>