<?xml version="1.0" encoding="UTF-8"?>
<svg width="24px" height="24px" viewBox="0 0 24 24" version="1.1" xmlns="http://www.w3.org/2000/svg" xmlns:xlink="http://www.w3.org/1999/xlink">
    <!-- Generator: Sketch 54.1 (76490) - https://sketchapp.com -->
    <title>Close</title>
    <desc>Created with Sketch.</desc>
    <g id="Main" stroke="none" stroke-width="1" fill="none" fill-rule="evenodd">
        <g id="2.-register__1440_error" transform="translate(-1380.000000, -36.000000)">
            <g id="Close" transform="translate(1368.000000, 24.000000)">
                <rect id="Rectangle" x="0" y="0" width="48" height="48"></rect>
                <g id="Group" transform="translate(11.000000, 11.000000)" fill="#6714B3" fill-rule="nonzero">
                    <path d="M15.82,13 L24.42,4.42 C25.2042443,3.63575566 25.2042443,2.36424434 24.42,1.58 C23.6357557,0.795755655 22.3642443,0.795755655 21.58,1.58 L13,10.18 L4.42,1.58 C3.63575565,0.795755675 2.36424436,0.795755685 1.58000002,1.58000002 C0.795755685,2.36424436 0.795755675,3.63575565 1.58,4.42 L10.18,13 L1.58,21.58 C1.2013747,21.9555332 0.988403351,22.4667249 0.988403351,23 C0.988403351,23.5332751 1.2013747,24.0444668 1.58,24.42 C1.9555332,24.7986253 2.46672493,25.0115966 3,25.0115966 C3.53327507,25.0115966 4.0444668,24.7986253 4.42,24.42 L13,15.82 L21.58,24.42 C21.9555332,24.7986253 22.4667249,25.0115966 23,25.0115966 C23.5332751,25.0115966 24.0444668,24.7986253 24.42,24.42 C24.7986253,24.0444668 25.0115966,23.5332751 25.0115966,23 C25.0115966,22.4667249 24.7986253,21.9555332 24.42,21.58 L15.82,13 Z" id="Path"></path>
                </g>
            </g>
        </g>
    </g>
</svg>