<?xml version="1.0" standalone="no"?>
<!DOCTYPE svg PUBLIC "-//W3C//DTD SVG 20010904//EN"
 "http://www.w3.org/TR/2001/REC-SVG-20010904/DTD/svg10.dtd">
<svg version="1.0" xmlns="http://www.w3.org/2000/svg"
 width="288.000000pt" height="80.000000pt" viewBox="0 0 288.000000 80.000000"
 preserveAspectRatio="xMidYMid meet">
<metadata>
Created by potrace 1.15, written by Peter Selinger 2001-2017
</metadata>
<g transform="translate(0.000000,80.000000) scale(0.100000,-0.100000)"
fill="#000000" stroke="none">
<path d="M270 762 c-56 -33 -65 -42 -68 -70 -3 -32 -3 -32 -32 -17 -27 14 -32
13 -99 -26 l-71 -41 0 -88 c0 -84 1 -88 27 -105 l26 -18 -26 -14 c-26 -13 -27
-16 -27 -103 l0 -89 70 -41 c67 -39 71 -40 99 -25 l30 15 3 -32 c3 -28 12 -37
68 -70 36 -21 71 -38 79 -38 8 0 45 18 83 40 60 36 68 45 68 71 l0 30 30 -16
c30 -15 32 -15 100 25 l70 41 0 89 c0 87 -1 90 -27 103 l-26 14 26 18 c26 17
27 21 27 105 l0 88 -71 41 c-68 39 -71 40 -100 26 -29 -15 -29 -15 -29 14 0
26 -8 35 -68 71 -38 22 -75 40 -83 40 -8 0 -43 -17 -79 -38z m110 -279 l30 18
0 -36 c0 -28 5 -38 25 -47 14 -6 25 -14 25 -18 0 -4 -11 -13 -25 -20 -19 -10
-25 -21 -25 -47 l0 -34 -30 18 c-29 17 -31 17 -60 0 l-30 -18 0 34 c0 26 -6
37 -25 47 -31 17 -31 24 0 38 20 9 25 19 25 47 l0 36 30 -18 c29 -17 31 -17
60 0z"/>
<path d="M2772 708 c-8 -8 -12 -47 -12 -110 0 -80 3 -98 15 -98 8 0 15 9 15
20 0 16 7 20 34 20 18 0 39 6 45 14 16 19 7 146 -11 157 -19 13 -72 11 -86 -3z"/>
<path d="M870 390 l0 -170 35 0 35 0 0 70 c0 68 1 70 25 70 24 0 25 -2 25 -70
l0 -70 30 0 30 0 0 170 0 170 -30 0 -30 0 0 -70 c0 -68 -1 -70 -25 -70 -24 0
-25 2 -25 70 l0 70 -35 0 -35 0 0 -170z"/>
<path d="M1104 552 c-26 -17 -34 -56 -34 -170 0 -141 10 -164 76 -168 21 -1
52 -7 67 -13 38 -15 37 -15 37 19 0 17 -3 30 -7 30 -5 0 -7 53 -5 117 4 127 0
154 -24 177 -16 17 -90 22 -110 8z"/>
<path d="M1390 390 l0 -170 30 0 30 0 1 73 1 72 9 -50 c17 -95 17 -95 48 -95
28 0 29 2 41 73 17 108 18 109 19 15 l1 -88 30 0 30 0 0 170 0 170 -44 0 -44
0 -13 -89 c-7 -50 -16 -88 -19 -86 -4 2 -12 43 -19 90 l-13 85 -44 0 -44 0 0
-170z"/>
<path d="M1684 552 c-26 -17 -34 -56 -34 -170 0 -147 10 -167 85 -167 75 0 85
20 85 167 0 155 -11 178 -85 178 -22 0 -45 -4 -51 -8z"/>
<path d="M1840 390 l0 -170 30 0 30 0 1 98 1 97 26 -97 27 -98 32 0 33 0 0
170 0 170 -30 0 -30 0 -1 -67 c0 -38 -2 -63 -4 -58 -2 6 -11 36 -20 68 -16 57
-16 57 -56 57 l-39 0 0 -170z"/>
<path d="M2040 390 l0 -170 35 0 35 0 0 170 0 170 -35 0 -35 0 0 -170z"/>
<path d="M2130 530 c0 -25 4 -30 25 -30 l25 0 0 -140 0 -140 35 0 35 0 0 140
0 140 25 0 c21 0 25 5 25 30 l0 30 -85 0 -85 0 0 -30z"/>
<path d="M2344 552 c-26 -17 -34 -56 -34 -170 0 -147 10 -167 85 -167 75 0 85
20 85 167 0 155 -11 178 -85 178 -22 0 -45 -4 -51 -8z"/>
<path d="M2500 390 l0 -170 35 0 35 0 0 66 c0 57 2 65 18 62 14 -3 18 -16 20
-66 l3 -62 32 0 33 0 -4 68 c-2 37 -8 74 -12 83 -5 8 -4 22 1 30 5 7 9 38 9
67 0 74 -20 92 -105 92 l-65 0 0 -170z"/>
</g>
</svg>
