<?xml version="1.0" encoding="UTF-8"?>
<svg width="192px" height="192px" viewBox="0 0 192 192" version="1.1" xmlns="http://www.w3.org/2000/svg" xmlns:xlink="http://www.w3.org/1999/xlink">
    <!-- Generator: Sketch 54.1 (76490) - https://sketchapp.com -->
    <title>Combined Shape</title>
    <desc>Created with Sketch.</desc>
    <defs>
        <path d="M315,230 C287.385763,230 265,207.614237 265,180 C265,152.385763 287.385763,130 315,130 C342.614237,130 365,152.385763 365,180 C365,207.614237 342.614237,230 315,230 Z M328.853034,182.748315 C329.179514,182.566937 329.448685,182.297766 329.630062,181.971286 C330.166489,181.005718 329.818601,179.788112 328.853034,179.251685 L307.971286,167.650714 C307.67417,167.48565 307.339888,167.399029 307,167.399029 C305.895431,167.399029 305,168.294459 305,169.399029 L305,192.600971 C305,192.94086 305.086621,193.275141 305.251685,193.572257 C305.788112,194.537824 307.005718,194.885712 307.971286,194.349286 L328.853034,182.748315 Z" id="path-1"></path>
        <filter x="-84.0%" y="-60.0%" width="268.0%" height="268.0%" filterUnits="objectBoundingBox" id="filter-2">
            <feOffset dx="0" dy="24" in="SourceAlpha" result="shadowOffsetOuter1"></feOffset>
            <feGaussianBlur stdDeviation="24" in="shadowOffsetOuter1" result="shadowBlurOuter1"></feGaussianBlur>
            <feColorMatrix values="0 0 0 0 0.0371559309   0 0 0 0 0.054875045   0 0 0 0 0.101589073  0 0 0 0.24 0" type="matrix" in="shadowBlurOuter1"></feColorMatrix>
        </filter>
    </defs>
    <g id="Main" stroke="none" stroke-width="1" fill="none" fill-rule="evenodd">
        <g id="1.-index_1440" transform="translate(-269.000000, -1897.000000)">
            <g id="VIDEO" transform="translate(50.000000, 1789.000000)">
                <g id="Combined-Shape">
                    <use fill="black" fill-opacity="1" filter="url(#filter-2)" xlink:href="#path-1"></use>
                    <use fill="#FFFFFF" fill-rule="evenodd" xlink:href="#path-1"></use>
                </g>
            </g>
        </g>
    </g>
</svg>