<?xml version="1.0" encoding="UTF-8"?>
<svg width="24px" height="16px" viewBox="0 0 24 16" version="1.1" xmlns="http://www.w3.org/2000/svg" xmlns:xlink="http://www.w3.org/1999/xlink">
    <!-- Generator: Sketch 54.1 (76490) - https://sketchapp.com -->
    <title>Group 5</title>
    <desc>Created with Sketch.</desc>
    <defs>
        <path d="M2,-1.13686838e-13 L22,-1.13686838e-13 C23.1045695,-1.13889744e-13 24,0.8954305 24,2 L24,14 C24,15.1045695 23.1045695,16 22,16 L2,16 C0.8954305,16 1.3527075e-16,15.1045695 0,14 L0,2 C-1.3527075e-16,0.8954305 0.8954305,-1.13483932e-13 2,-1.13686838e-13 Z" id="path-1"></path>
    </defs>
    <g id="Main" stroke="none" stroke-width="1" fill="none" fill-rule="evenodd">
        <g id="1.-index_1440" transform="translate(-1340.000000, -54.000000)">
            <g id="HEAD" transform="translate(50.000000, 40.000000)">
                <g id="Group-7" transform="translate(1290.000000, 10.000000)">
                    <g id="Group-5">
                        <polygon id="Path" points="0 0 24 0 24 24 0 24"></polygon>
                        <g id="Group-4" transform="translate(0.000000, 4.000000)">
                            <mask id="mask-2" fill="white">
                                <use xlink:href="#path-1"></use>
                            </mask>
                            <path stroke="#E6E6E6" d="M2,0.5 C1.17157288,0.5 0.5,1.17157288 0.5,2 L0.5,14 C0.5,14.8284271 1.17157288,15.5 2,15.5 L22,15.5 C22.8284271,15.5 23.5,14.8284271 23.5,14 L23.5,2 C23.5,1.17157288 22.8284271,0.5 22,0.5 L2,0.5 Z"></path>
                            <rect id="Rectangle" fill="#E50000" style="mix-blend-mode: multiply;" mask="url(#mask-2)" x="0" y="11" width="24" height="5"></rect>
                            <rect id="Rectangle-Copy" fill="#001BD2" style="mix-blend-mode: multiply;" mask="url(#mask-2)" x="0" y="6" width="24" height="5"></rect>
                        </g>
                    </g>
                </g>
            </g>
        </g>
    </g>
</svg>