<?xml version="1.0" encoding="UTF-8"?>
<svg width="40px" height="40px" viewBox="0 0 40 40" version="1.1" xmlns="http://www.w3.org/2000/svg" xmlns:xlink="http://www.w3.org/1999/xlink">
    <!-- Generator: Sketch 54.1 (76490) - https://sketchapp.com -->
    <title>Combined Shape</title>
    <desc>Created with Sketch.</desc>
    <g id="Main" stroke="none" stroke-width="1" fill="none" fill-rule="evenodd">
        <g id="hq_monitor_1440-copy-3" transform="translate(-1170.000000, -3793.000000)" fill="#6714B3">
            <g id="Group-24" transform="translate(50.000000, 3289.000000)">
                <g id="Group-17" transform="translate(0.000000, 464.000000)">
                    <g id="Group-15" transform="translate(1120.000000, 40.000000)">
                        <path d="M20,40 C8.954305,40 0,31.045695 0,20 C0,8.954305 8.954305,0 20,0 C31.045695,0 40,8.954305 40,20 C40,31.045695 31.045695,40 20,40 Z M20.9847592,30 L20.9841496,30 L20.9841496,20.9988639 L23.647023,20.9988639 L24,17.8973744 L20.9841496,17.8973744 L20.9896363,16.3449255 C20.9896363,15.5360389 21.0719366,15.1026256 22.3174152,15.1026256 L23.981711,15.1026256 L23.981711,12 L21.3188376,12 C18.1194879,12 16.9941069,13.5053017 16.9941069,16.0353446 L16.9941069,17.8973744 L15,17.8973744 L15,20.9988639 L16.9941069,20.9988639 L16.9941069,30 L20.9847592,30 Z" id="Combined-Shape"></path>
                    </g>
                </g>
            </g>
        </g>
    </g>
</svg>