<?xml version="1.0" encoding="UTF-8"?>
<svg width="40px" height="40px" viewBox="0 0 40 40" version="1.1" xmlns="http://www.w3.org/2000/svg" xmlns:xlink="http://www.w3.org/1999/xlink">
    <!-- Generator: Sketch 54.1 (76490) - https://sketchapp.com -->
    <title>Combined Shape</title>
    <desc>Created with Sketch.</desc>
    <g id="Main" stroke="none" stroke-width="1" fill="none" fill-rule="evenodd">
        <g id="hq_monitor_1440-copy-3" transform="translate(-1230.000000, -3793.000000)" fill="#6714B3">
            <g id="Group-24" transform="translate(50.000000, 3289.000000)">
                <g id="Group-17" transform="translate(0.000000, 464.000000)">
                    <g id="Group-15" transform="translate(1120.000000, 40.000000)">
                        <path d="M80,40 C68.954305,40 60,31.045695 60,20 C60,8.954305 68.954305,0 80,0 C91.045695,0 100,8.954305 100,20 C100,31.045695 91.045695,40 80,40 Z M86.6151611,15.2133468 C87.2932148,14.776542 87.8134942,14.0839232 88.0576686,13.2588473 C87.422815,13.6643074 86.7212831,13.9575329 85.9727945,14.1162791 C85.3755063,13.4287159 84.5218348,13 83.5770676,13 C81.7645419,13 80.2957387,14.5824065 80.2957387,16.5338726 C80.2957387,16.8109201 80.3229735,17.0808898 80.3793215,17.338726 C77.6520808,17.1911021 75.2338146,15.7856421 73.6138111,13.6461072 C73.3311322,14.1698686 73.1696015,14.776542 73.1696015,15.4236603 C73.1696015,16.6491405 73.7490462,17.7310415 74.6299525,18.3660263 C74.0918295,18.3478261 73.5856371,18.1870576 73.1423666,17.9241658 L73.1423666,17.9676441 C73.1423666,19.6804853 74.2730821,21.1092012 75.7766332,21.4327604 C75.5005283,21.5156724 75.2112755,21.5571284 74.9107531,21.5571284 C74.6994483,21.5571284 74.4928391,21.5358948 74.293743,21.4944388 C74.7107178,22.8978766 75.9231379,23.9211325 77.3600106,23.9484328 C76.235869,24.8968655 74.8205963,25.4610718 73.2832365,25.4610718 C73.0184011,25.4610718 72.7563832,25.445905 72.5,25.4125379 C73.9528379,26.4145602 75.6780243,27 77.5318718,27 C83.5704936,27 86.8706052,21.6147624 86.8706052,16.9443883 C86.8706052,16.7906977 86.8687269,16.6380182 86.862153,16.487361 C87.5035804,15.9888777 88.0614251,15.3660263 88.5,14.6572295 C87.9111639,14.9383215 87.2781886,15.1284125 86.6151611,15.2133468 Z" id="Combined-Shape"></path>
                    </g>
                </g>
            </g>
        </g>
    </g>
</svg>