<?xml version="1.0" encoding="UTF-8"?>
<svg width="40px" height="40px" viewBox="0 0 40 40" version="1.1" xmlns="http://www.w3.org/2000/svg" xmlns:xlink="http://www.w3.org/1999/xlink">
    <!-- Generator: Sketch 54.1 (76490) - https://sketchapp.com -->
    <title>Combined Shape</title>
    <desc>Created with Sketch.</desc>
    <g id="Main" stroke="none" stroke-width="1" fill="none" fill-rule="evenodd">
        <g id="hq_monitor_1440-copy-3" transform="translate(-1290.000000, -3793.000000)" fill="#6714B3">
            <g id="Group-24" transform="translate(50.000000, 3289.000000)">
                <g id="Group-17" transform="translate(0.000000, 464.000000)">
                    <g id="Group-15" transform="translate(1120.000000, 40.000000)">
                        <path d="M140,40 C128.954305,40 120,31.045695 120,20 C120,8.954305 128.954305,0 140,0 C151.045695,0 160,8.954305 160,20 C160,31.045695 151.045695,40 140,40 Z M132,16.7128721 L132,24.2871279 C132,26.881311 134.110025,29 136.712872,29 L144.287128,29 C146.881311,29 149,26.8899753 149,24.2871279 L149,16.7128721 C149,14.118689 146.889975,12 144.287128,12 L136.712872,12 C134.118689,12 132,14.1100247 132,16.7128721 Z M140.5,24 C138.567003,24 137,22.4329966 137,20.5 C137,18.5670034 138.567003,17 140.5,17 C142.432997,17 144,18.5670034 144,20.5 C144,22.4329966 142.432997,24 140.5,24 Z M145,17 C144.447715,17 144,16.5522847 144,16 C144,15.4477153 144.447715,15 145,15 C145.552285,15 146,15.4477153 146,16 C146,16.5522847 145.552285,17 145,17 Z" id="Combined-Shape"></path>
                    </g>
                </g>
            </g>
        </g>
    </g>
</svg>