<?xml version="1.0" encoding="UTF-8"?>
<svg width="40px" height="40px" viewBox="0 0 40 40" version="1.1" xmlns="http://www.w3.org/2000/svg" xmlns:xlink="http://www.w3.org/1999/xlink">
    <!-- Generator: Sketch 54.1 (76490) - https://sketchapp.com -->
    <title>Combined Shape</title>
    <desc>Created with Sketch.</desc>
    <g id="Main" stroke="none" stroke-width="1" fill="none" fill-rule="evenodd">
        <g id="hq_monitor_1440-copy-3" transform="translate(-1350.000000, -3793.000000)" fill="#6714B3">
            <g id="Group-24" transform="translate(50.000000, 3289.000000)">
                <g id="Group-17" transform="translate(0.000000, 464.000000)">
                    <g id="Group-15" transform="translate(1120.000000, 40.000000)">
                        <path d="M200,40 C188.954305,40 180,31.045695 180,20 C180,8.954305 188.954305,0 200,0 C211.045695,0 220,8.954305 220,20 C220,31.045695 211.045695,40 200,40 Z M210,16.4358201 C210,16.4358201 210,13 206.553387,13 L194.445437,13 C194.445437,13 191,13 191,16.4358201 L191,23.5641799 C191,23.5641799 191,27 194.445437,27 L206.553387,27 C206.553387,27 210,27 210,23.5641799 L210,16.4358201 Z M198,23 L198,17 L204,20 L198,23 Z" id="Combined-Shape"></path>
                    </g>
                </g>
            </g>
        </g>
    </g>
</svg>